{
    "asset": {
        "copyright": "2020 (c) Adobe Inc.",
        "generator": "Adobe Dimension - a39c749b7f1dd68e8fcb597e3575f0bb9d09bfc8",
        "version": "2.0"
    },
    "accessors": [
        {
            "bufferView": 0,
            "componentType": 5126,
            "count": 16690,
            "type": "VEC3",
            "max": [
                1.0550525188446046,
                0.49371182918548586,
                0.8352042436599731
            ],
            "min": [
                -1.0550518035888672,
                0.0,
                0.5656442642211914
            ]
        },
        {
            "bufferView": 1,
            "componentType": 5126,
            "count": 16690,
            "type": "VEC3"
        },
        {
            "bufferView": 2,
            "componentType": 5126,
            "count": 16690,
            "type": "VEC2"
        },
        {
            "bufferView": 3,
            "componentType": 5125,
            "count": 67347,
            "type": "SCALAR",
            "max": [
                16689.0
            ],
            "min": [
                0.0
            ]
        },
        {
            "bufferView": 4,
            "componentType": 5126,
            "count": 11700,
            "type": "VEC3",
            "max": [
                0.8178942799568176,
                0.3796923756599426,
                0.3450227975845337
            ],
            "min": [
                -0.8178942799568176,
                0.0,
                -0.018345339223742486
            ]
        },
        {
            "bufferView": 5,
            "componentType": 5126,
            "count": 11700,
            "type": "VEC3"
        },
        {
            "bufferView": 6,
            "componentType": 5126,
            "count": 11700,
            "type": "VEC2"
        },
        {
            "bufferView": 7,
            "componentType": 5125,
            "count": 48339,
            "type": "SCALAR",
            "max": [
                11699.0
            ],
            "min": [
                0.0
            ]
        }
    ],
    "bufferViews": [
        {
            "buffer": 0,
            "byteOffset": 0,
            "byteLength": 200280,
            "target": 34962
        },
        {
            "buffer": 0,
            "byteOffset": 200280,
            "byteLength": 200280,
            "target": 34962
        },
        {
            "buffer": 0,
            "byteOffset": 400560,
            "byteLength": 133520,
            "target": 34962
        },
        {
            "buffer": 0,
            "byteOffset": 534080,
            "byteLength": 269388,
            "target": 34963
        },
        {
            "buffer": 0,
            "byteOffset": 803468,
            "byteLength": 140400,
            "target": 34962
        },
        {
            "buffer": 0,
            "byteOffset": 943868,
            "byteLength": 140400,
            "target": 34962
        },
        {
            "buffer": 0,
            "byteOffset": 1084268,
            "byteLength": 93600,
            "target": 34962
        },
        {
            "buffer": 0,
            "byteOffset": 1177868,
            "byteLength": 193356,
            "target": 34963
        }
    ],
    "buffers": [
        {
            "byteLength": 1371224,
            "uri": "HandRainbowtext_binary.bin"
        }
    ],
    "cameras": [
        {
            "perspective": {
                "znear": 0.000010000000656873454,
                "yfov": 0.6024156808853149,
                "zfar": 2.0,
                "aspectRatio": 1.3333333730697632
            },
            "type": "perspective",
            "name": "render_camera"
        }
    ],
    "images": [
        {
            "name": "normal_image_texture",
            "uri": "HandRainbowtext_images/normal_image_texture.png",
            "mimeType": "image/png"
        }
    ],
    "materials": [
        {
            "pbrMetallicRoughness": {
                "baseColorFactor": [
                    0.9646862745285034,
                    0.9559735059738159,
                    0.9130986928939819,
                    1.0
                ],
                "roughnessFactor": 0.41960784792900088
            },
            "normalTexture": {
                "index": 0
            },
            "name": "Silver Glossy 2",
            "doubleSided": true
        }
    ],
    "meshes": [
        {
            "name": "Shall Pass",
            "primitives": [
                {
                    "attributes": {
                        "TEXCOORD_0": 2,
                        "NORMAL": 1,
                        "POSITION": 0
                    },
                    "indices": 3,
                    "material": 0
                }
            ]
        },
        {
            "name": "This too",
            "primitives": [
                {
                    "attributes": {
                        "POSITION": 4,
                        "NORMAL": 5,
                        "TEXCOORD_0": 6
                    },
                    "indices": 7,
                    "material": 0
                }
            ]
        }
    ],
    "nodes": [
        {
            "translation": [
                0.34027960896492007,
                -0.026034202426671983,
                0.3743867874145508
            ],
            "rotation": [
                -0.12059047073125839,
                0.379409521818161,
                0.04995020851492882,
                0.9159756302833557
            ],
            "scale": [
                1.0,
                1.0,
                0.9999999403953552
            ],
            "camera": 0,
            "name": "render_camera_n3d"
        },
        {
            "translation": [
                -0.008701152168214322,
                0.013158072717487812,
                -0.14160874485969544
            ],
            "rotation": [
                0.026161031797528268,
                0.03149979189038277,
                0.01502465270459652,
                0.9990483522415161
            ],
            "scale": [
                0.18329180777072907,
                0.18329204618930818,
                0.1832919865846634
            ],
            "mesh": 0,
            "name": "Shall Pass"
        },
        {
            "translation": [
                -0.00321789737790823,
                0.08440841734409332,
                -0.01881633698940277
            ],
            "rotation": [
                -0.10452848672866821,
                7.90328413824426e-10,
                -7.519470379691029e-9,
                0.9945219159126282
            ],
            "scale": [
                0.18476451933383943,
                0.18476451933383943,
                0.18476451933383943
            ],
            "mesh": 1,
            "name": "This too"
        }
    ],
    "samplers": [
        {}
    ],
    "scenes": [
        {
            "nodes": [
                0,
                1,
                2
            ],
            "name": "scene"
        }
    ],
    "textures": [
        {
            "name": "normal_image_texture",
            "sampler": 0,
            "source": 0
        }
    ],
    "scene": 0
}