{
    "asset": {
        "copyright": "2020 (c) Adobe Inc.",
        "generator": "Adobe Dimension - a39c749b7f1dd68e8fcb597e3575f0bb9d09bfc8",
        "version": "2.0"
    },
    "accessors": [
        {
            "bufferView": 0,
            "componentType": 5126,
            "count": 70240,
            "type": "VEC3",
            "max": [
                0.045925308018922809,
                0.017283570021390916,
                0.0044889491982758049
            ],
            "min": [
                -0.002569206291809678,
                -0.008453169837594033,
                -0.006687335204333067
            ]
        },
        {
            "bufferView": 1,
            "componentType": 5126,
            "count": 70240,
            "type": "VEC3"
        },
        {
            "bufferView": 2,
            "componentType": 5126,
            "count": 70240,
            "type": "VEC2"
        },
        {
            "bufferView": 3,
            "componentType": 5125,
            "count": 415404,
            "type": "SCALAR",
            "max": [
                70239.0
            ],
            "min": [
                0.0
            ]
        },
        {
            "bufferView": 4,
            "componentType": 5126,
            "count": 2399,
            "type": "VEC3",
            "max": [
                0.09999999403953552,
                0.19999998807907105,
                0.09999999403953552
            ],
            "min": [
                -0.09999999403953552,
                0.0,
                -0.09999999403953552
            ]
        },
        {
            "bufferView": 5,
            "componentType": 5126,
            "count": 2399,
            "type": "VEC3"
        },
        {
            "bufferView": 6,
            "componentType": 5126,
            "count": 2399,
            "type": "VEC2"
        },
        {
            "bufferView": 7,
            "componentType": 5125,
            "count": 13536,
            "type": "SCALAR",
            "max": [
                2398.0
            ],
            "min": [
                0.0
            ]
        }
    ],
    "bufferViews": [
        {
            "buffer": 0,
            "byteOffset": 0,
            "byteLength": 842880,
            "target": 34962
        },
        {
            "buffer": 0,
            "byteOffset": 842880,
            "byteLength": 842880,
            "target": 34962
        },
        {
            "buffer": 0,
            "byteOffset": 1685760,
            "byteLength": 561920,
            "target": 34962
        },
        {
            "buffer": 0,
            "byteOffset": 2247680,
            "byteLength": 1661616,
            "target": 34963
        },
        {
            "buffer": 0,
            "byteOffset": 3909296,
            "byteLength": 28788,
            "target": 34962
        },
        {
            "buffer": 0,
            "byteOffset": 3938084,
            "byteLength": 28788,
            "target": 34962
        },
        {
            "buffer": 0,
            "byteOffset": 3966872,
            "byteLength": 19192,
            "target": 34962
        },
        {
            "buffer": 0,
            "byteOffset": 3986064,
            "byteLength": 54144,
            "target": 34963
        }
    ],
    "buffers": [
        {
            "byteLength": 4040208,
            "uri": "HandRainbowHand_binary.bin"
        }
    ],
    "cameras": [
        {
            "perspective": {
                "znear": 0.000010000000656873454,
                "yfov": 0.6024156808853149,
                "zfar": 2.0,
                "aspectRatio": 1.3333333730697632
            },
            "type": "perspective",
            "name": "render_camera"
        }
    ],
    "images": [
        {
            "name": "basecolor_image_texture",
            "uri": "HandRainbowHand_images/basecolor_image_texture.jpg",
            "mimeType": "image/jpeg"
        },
        {
            "name": "ambientocclusion_image_texture_roughness_image_texture",
            "uri": "HandRainbowHand_images/ambientocclusion_image_texture_roughness_image_texture.png",
            "mimeType": "image/png"
        },
        {
            "name": "normal_image_texture",
            "uri": "HandRainbowHand_images/normal_image_texture.png",
            "mimeType": "image/png"
        },
        {
            "name": "image",
            "uri": "HandRainbowHand_images/image.png",
            "mimeType": "image/png"
        },
        {
            "name": "ice_normal",
            "uri": "HandRainbowHand_images/ice_normal.png",
            "mimeType": "image/png"
        }
    ],
    "materials": [
        {
            "pbrMetallicRoughness": {
                "baseColorTexture": {
                    "index": 0
                },
                "metallicFactor": 0.0,
                "metallicRoughnessTexture": {
                    "index": 1
                }
            },
            "normalTexture": {
                "index": 2
            },
            "occlusionTexture": {
                "index": 1
            },
            "name": "Cracked Concrete",
            "doubleSided": true
        },
        {
            "pbrMetallicRoughness": {
                "baseColorFactor": [
                    1.0,
                    1.0,
                    1.0,
                    0.25
                ],
                "metallicFactor": 0.0,
                "metallicRoughnessTexture": {
                    "index": 3,
                    "extensions": {
                        "KHR_texture_transform": {
                            "offset": [
                                0,
                                -0.28999999165534975
                            ],
                            "rotation": 0,
                            "scale": [
                                1,
                                1
                            ]
                        }
                    }
                }
            },
            "normalTexture": {
                "index": 4
            },
            "alphaMode": "BLEND",
            "name": "Ice",
            "doubleSided": true
        },
        {
            "pbrMetallicRoughness": {
                "baseColorFactor": [
                    0.9734445810317993,
                    1.0,
                    0.05951114371418953,
                    0.6399999856948853
                ],
                "metallicFactor": 0.05999999865889549
            },
            "emissiveFactor": [
                1.0,
                1.0,
                0.1707969754934311
            ],
            "alphaMode": "BLEND",
            "name": "Glowing",
            "doubleSided": true
        }
    ],
    "meshes": [
        {
            "name": "Group11720",
            "primitives": [
                {
                    "attributes": {
                        "POSITION": 0,
                        "NORMAL": 1,
                        "TEXCOORD_0": 2
                    },
                    "indices": 3,
                    "material": 0
                }
            ]
        },
        {
            "name": "PROCEDURAL_MESHES_SPHERE#",
            "primitives": [
                {
                    "attributes": {
                        "TEXCOORD_0": 6,
                        "NORMAL": 5,
                        "POSITION": 4
                    },
                    "indices": 7,
                    "material": 1
                }
            ]
        },
        {
            "name": "PROCEDURAL_MESHES_SPHERE#",
            "primitives": [
                {
                    "attributes": {
                        "POSITION": 4,
                        "NORMAL": 5,
                        "TEXCOORD_0": 6
                    },
                    "indices": 7,
                    "material": 2
                }
            ]
        }
    ],
    "nodes": [
        {
            "translation": [
                0.3686155676841736,
                0.17250953614711762,
                0.3849557340145111
            ],
            "rotation": [
                -0.12059047073125839,
                0.379409521818161,
                0.04995020851492882,
                0.9159756302833557
            ],
            "scale": [
                1.0,
                1.0,
                0.9999999403953552
            ],
            "camera": 0,
            "name": "render_camera_n3d"
        },
        {
            "translation": [
                -0.14646859467029572,
                0.04686303064227104,
                0.0471358485519886
            ],
            "rotation": [
                -0.6598763465881348,
                0.018118854612112047,
                0.07318200170993805,
                0.7475822567939758
            ],
            "scale": [
                6.8665666580200199,
                6.866562843322754,
                6.866565227508545
            ],
            "mesh": 0,
            "name": "Group11720"
        },
        {
            "translation": [
                0.021862687543034555,
                0.09135151654481888,
                0.018850326538085939
            ],
            "scale": [
                0.2852945923805237,
                0.2852945923805237,
                0.2852945923805237
            ],
            "mesh": 1,
            "name": "Glass Sphere"
        },
        {
            "translation": [
                0.021862687543034555,
                0.10218232125043869,
                0.018850326538085939
            ],
            "scale": [
                0.17698679864406587,
                0.17698679864406587,
                0.17698679864406587
            ],
            "mesh": 2,
            "name": "Glow Sphere"
        }
    ],
    "samplers": [
        {},
        {},
        {},
        {},
        {}
    ],
    "scenes": [
        {
            "nodes": [
                0,
                1,
                2,
                3
            ],
            "name": "scene"
        }
    ],
    "textures": [
        {
            "name": "basecolor_image_texture",
            "sampler": 0,
            "source": 0
        },
        {
            "name": "ambientocclusion_image_texture_roughness_image_texture",
            "sampler": 1,
            "source": 1
        },
        {
            "name": "normal_image_texture",
            "sampler": 2,
            "source": 2
        },
        {
            "name": "image",
            "sampler": 3,
            "source": 3
        },
        {
            "name": "ice_material::normal::image",
            "sampler": 4,
            "source": 4
        }
    ],
    "scene": 0,
    "extensionsUsed": [
        "KHR_texture_transform"
    ],
    "extensionsRequired": [
        "KHR_texture_transform"
    ]
}