{
    "asset": {
        "copyright": "2020 (c) Adobe Inc.",
        "generator": "Adobe Dimension - a39c749b7f1dd68e8fcb597e3575f0bb9d09bfc8",
        "version": "2.0"
    },
    "accessors": [
        {
            "bufferView": 0,
            "componentType": 5126,
            "count": 4140,
            "type": "VEC3",
            "max": [
                0.15978147089481355,
                0.019945217296481134,
                0.15972912311553956
            ],
            "min": [
                -0.15973225235939027,
                0.00005478143066284247,
                -0.04404174163937569
            ]
        },
        {
            "bufferView": 1,
            "componentType": 5126,
            "count": 4140,
            "type": "VEC3"
        },
        {
            "bufferView": 2,
            "componentType": 5126,
            "count": 4140,
            "type": "VEC2"
        },
        {
            "bufferView": 3,
            "componentType": 5125,
            "count": 4140,
            "type": "SCALAR",
            "max": [
                4139.0
            ],
            "min": [
                0.0
            ]
        }
    ],
    "bufferViews": [
        {
            "buffer": 0,
            "byteOffset": 0,
            "byteLength": 49680,
            "target": 34962
        },
        {
            "buffer": 0,
            "byteOffset": 49680,
            "byteLength": 49680,
            "target": 34962
        },
        {
            "buffer": 0,
            "byteOffset": 99360,
            "byteLength": 33120,
            "target": 34962
        },
        {
            "buffer": 0,
            "byteOffset": 132480,
            "byteLength": 16560,
            "target": 34963
        }
    ],
    "buffers": [
        {
            "byteLength": 149040,
            "uri": "HandRainbow_binary.bin"
        }
    ],
    "cameras": [
        {
            "perspective": {
                "znear": 0.000010000000656873454,
                "yfov": 0.6024156808853149,
                "zfar": 2.0,
                "aspectRatio": 1.3333333730697632
            },
            "type": "perspective",
            "name": "render_camera"
        }
    ],
    "materials": [
        {
            "pbrMetallicRoughness": {
                "baseColorFactor": [
                    0.3467036187648773,
                    0.051269300282001498,
                    1.0,
                    0.25
                ],
                "metallicFactor": 0.0,
                "roughnessFactor": 0.0
            },
            "emissiveFactor": [
                0.05200554430484772,
                0.007690395228564739,
                0.15000000596046449
            ],
            "alphaMode": "BLEND",
            "name": "Glass",
            "doubleSided": true
        },
        {
            "pbrMetallicRoughness": {
                "baseColorFactor": [
                    0.0015176470624282957,
                    0.7912985682487488,
                    0.2917711138725281,
                    0.25
                ],
                "metallicFactor": 0.0,
                "roughnessFactor": 0.0
            },
            "emissiveFactor": [
                0.0002276470622746274,
                0.11869478970766068,
                0.04376566782593727
            ],
            "alphaMode": "BLEND",
            "name": "Glass",
            "doubleSided": true
        },
        {
            "pbrMetallicRoughness": {
                "baseColorFactor": [
                    0.8631575703620911,
                    0.8069524765014648,
                    0.0009106037323363125,
                    0.25
                ],
                "metallicFactor": 0.0,
                "roughnessFactor": 0.0
            },
            "emissiveFactor": [
                0.12947364151477815,
                0.1210428774356842,
                0.00013659056276082993
            ],
            "alphaMode": "BLEND",
            "name": "Glass",
            "doubleSided": true
        },
        {
            "pbrMetallicRoughness": {
                "baseColorFactor": [
                    1.0,
                    0.23839740455150605,
                    0.0069953626953065399,
                    0.25
                ],
                "metallicFactor": 0.0,
                "roughnessFactor": 0.0
            },
            "emissiveFactor": [
                0.15000000596046449,
                0.035759612917900088,
                0.0010493044974282385
            ],
            "alphaMode": "BLEND",
            "name": "Glass",
            "doubleSided": true
        },
        {
            "pbrMetallicRoughness": {
                "baseColorFactor": [
                    0.913098156452179,
                    0.018500210717320443,
                    0.36130672693252566,
                    0.25
                ],
                "metallicFactor": 0.0,
                "roughnessFactor": 0.0
            },
            "emissiveFactor": [
                0.13696472346782685,
                0.0027750316075980665,
                0.054196011275053027
            ],
            "alphaMode": "BLEND",
            "name": "Glass",
            "doubleSided": true
        },
        {
            "pbrMetallicRoughness": {
                "baseColorFactor": [
                    0.0018211300484836102,
                    0.3967551589012146,
                    0.7083767652511597,
                    0.25
                ],
                "metallicFactor": 0.0,
                "roughnessFactor": 0.0
            },
            "emissiveFactor": [
                0.0002731695130933076,
                0.05951327458024025,
                0.10625652223825455
            ],
            "alphaMode": "BLEND",
            "name": "Glass",
            "doubleSided": true
        }
    ],
    "meshes": [
        {
            "name": "PROCEDURAL_MESHES_TORUS#",
            "primitives": [
                {
                    "attributes": {
                        "TEXCOORD_0": 2,
                        "NORMAL": 1,
                        "POSITION": 0
                    },
                    "indices": 3,
                    "material": 0
                }
            ]
        },
        {
            "name": "PROCEDURAL_MESHES_TORUS#",
            "primitives": [
                {
                    "attributes": {
                        "POSITION": 0,
                        "NORMAL": 1,
                        "TEXCOORD_0": 2
                    },
                    "indices": 3,
                    "material": 1
                }
            ]
        },
        {
            "name": "PROCEDURAL_MESHES_TORUS#",
            "primitives": [
                {
                    "attributes": {
                        "TEXCOORD_0": 2,
                        "NORMAL": 1,
                        "POSITION": 0
                    },
                    "indices": 3,
                    "material": 2
                }
            ]
        },
        {
            "name": "PROCEDURAL_MESHES_TORUS#",
            "primitives": [
                {
                    "attributes": {
                        "TEXCOORD_0": 2,
                        "NORMAL": 1,
                        "POSITION": 0
                    },
                    "indices": 3,
                    "material": 3
                }
            ]
        },
        {
            "name": "PROCEDURAL_MESHES_TORUS#",
            "primitives": [
                {
                    "attributes": {
                        "POSITION": 0,
                        "NORMAL": 1,
                        "TEXCOORD_0": 2
                    },
                    "indices": 3,
                    "material": 4
                }
            ]
        },
        {
            "name": "PROCEDURAL_MESHES_TORUS#",
            "primitives": [
                {
                    "attributes": {
                        "POSITION": 0,
                        "NORMAL": 1,
                        "TEXCOORD_0": 2
                    },
                    "indices": 3,
                    "material": 5
                }
            ]
        }
    ],
    "nodes": [
        {
            "translation": [
                0.34152936935424807,
                0.13502278923988343,
                0.37828680872917178
            ],
            "rotation": [
                -0.12059047073125839,
                0.379409521818161,
                0.04995020851492882,
                0.9159756302833557
            ],
            "scale": [
                1.0,
                1.0,
                0.9999999403953552
            ],
            "camera": 0,
            "name": "render_camera_n3d"
        },
        {
            "translation": [
                0.0333540141582489,
                0.026002483442425729,
                -0.001217966084368527
            ],
            "rotation": [
                -0.47931164503097536,
                -0.47035208344459536,
                -0.5095215439796448,
                0.5379749536514282
            ],
            "scale": [
                0.8441570401191711,
                0.8441563844680786,
                0.8441570997238159
            ],
            "mesh": 0,
            "name": "Torus 6"
        },
        {
            "translation": [
                0.0001299095165450126,
                0.025294283404946328,
                -0.000007362365522567416
            ],
            "rotation": [
                -0.47931164503097536,
                -0.47035208344459536,
                -0.509521484375,
                0.5379749536514282
            ],
            "scale": [
                0.8441570401191711,
                0.8441563844680786,
                0.8441570997238159
            ],
            "mesh": 1,
            "name": "Torus 4"
        },
        {
            "translation": [
                -0.016381988301873208,
                0.02494228258728981,
                0.0005943393334746361
            ],
            "rotation": [
                -0.47931164503097536,
                -0.4703521132469177,
                -0.509521484375,
                0.5379749536514282
            ],
            "scale": [
                0.8441570401191711,
                0.8441563844680786,
                0.8441570997238159
            ],
            "mesh": 2,
            "name": "Torus 3"
        },
        {
            "translation": [
                -0.03266260027885437,
                0.02459527924656868,
                0.0011876487405970693
            ],
            "rotation": [
                -0.47931164503097536,
                -0.4703521132469177,
                -0.509521484375,
                0.5379749536514282
            ],
            "scale": [
                0.8441571593284607,
                0.8441563844680786,
                0.8441570997238159
            ],
            "mesh": 3,
            "name": "Torus 2"
        },
        {
            "translation": [
                -0.0497312918305397,
                0.02423148974776268,
                0.0018096350831910968
            ],
            "rotation": [
                -0.47931164503097536,
                -0.4703521132469177,
                -0.509521484375,
                0.5379749536514282
            ],
            "scale": [
                0.8441570401191711,
                0.8441563844680786,
                0.8441570997238159
            ],
            "mesh": 4,
            "name": "Torus"
        },
        {
            "translation": [
                0.01706380769610405,
                0.025655193254351617,
                -0.0006243610405363143
            ],
            "rotation": [
                -0.47931164503097536,
                -0.47035208344459536,
                -0.509521484375,
                0.5379749536514282
            ],
            "scale": [
                0.8441570401191711,
                0.8441563844680786,
                0.8441570997238159
            ],
            "mesh": 5,
            "name": "Torus 5"
        }
    ],
    "scenes": [
        {
            "nodes": [
                0,
                1,
                2,
                3,
                4,
                5,
                6
            ],
            "name": "scene"
        }
    ],
    "scene": 0
}